<?xml version="1.0" standalone="no"?>
<!DOCTYPE svg PUBLIC "-//W3C//DTD SVG 20010904//EN"
 "http://www.w3.org/TR/2001/REC-SVG-20010904/DTD/svg10.dtd">
<svg version="1.0" xmlns="http://www.w3.org/2000/svg"
 width="512.000000pt" height="512.000000pt" viewBox="0 0 512.000000 512.000000"
 preserveAspectRatio="xMidYMid meet">
<metadata>
Created by potrace 1.14, written by Peter Selinger 2001-2017
</metadata>
<g transform="translate(0.000000,512.000000) scale(0.100000,-0.100000)"
fill="#000000" stroke="none">
<path d="M0 2560 l0 -2560 2560 0 2560 0 0 2560 0 2560 -2560 0 -2560 0 0
-2560z m2740 2245 c375 -58 687 -198 903 -404 101 -97 160 -175 213 -286 72
-148 87 -222 88 -415 0 -151 -3 -172 -28 -255 -94 -308 -301 -489 -724 -631
-8 -2 -12 -12 -10 -21 5 -24 148 -65 206 -58 64 7 212 66 304 121 46 28 117
83 163 129 192 188 285 417 285 706 0 300 -96 539 -304 757 -43 45 -76 85 -73
89 9 8 138 -99 194 -161 116 -130 196 -276 239 -441 23 -87 27 -121 28 -260 0
-96 -5 -184 -12 -220 -74 -345 -274 -579 -629 -741 l-92 -41 42 -19 c214 -96
453 -344 545 -566 121 -290 116 -637 -13 -904 -148 -306 -440 -506 -865 -591
-77 -15 -210 -17 -1380 -20 -1030 -2 -1292 0 -1279 10 8 6 110 95 227 196
l212 184 0 703 0 704 -87 0 c-49 0 -142 -7 -208 -15 -169 -20 -159 -22 -172
27 -6 24 -10 44 -8 46 6 6 183 21 327 28 l148 7 0 83 0 84 -115 0 c-63 0 -182
-5 -265 -11 -83 -6 -153 -9 -156 -6 -2 2 26 71 64 153 l68 149 140 -3 c76 -1
167 -5 202 -8 l62 -6 0 615 0 614 -185 98 c-102 54 -182 101 -178 105 23 21
234 139 338 189 345 166 697 262 1105 301 144 13 556 4 680 -15z m1490 -2553
c66 -84 134 -224 166 -348 22 -83 27 -128 31 -276 7 -242 -19 -402 -95 -573
-163 -369 -474 -612 -903 -706 -218 -47 -268 -49 -1535 -49 l-1191 0 -26 37
-27 38 1207 6 c1269 6 1304 7 1545 53 191 37 364 112 510 221 215 161 341 362
404 640 24 108 30 379 10 492 -31 177 -107 349 -223 503 -29 39 -53 74 -53 77
0 3 8 11 17 18 15 11 24 7 64 -29 26 -22 71 -70 99 -104z"/>
<path d="M2175 4559 c-161 -21 -347 -81 -482 -156 l-63 -34 0 -734 0 -735 85
0 85 0 0 670 0 669 47 21 c183 81 366 115 562 107 324 -14 496 -107 653 -352
27 -44 68 -121 68 -130 0 -3 -18 4 -39 15 -22 11 -60 46 -84 78 -138 179 -318
283 -542 313 -174 23 -344 -7 -490 -84 l-80 -43 -3 -632 -2 -632 127 0 c526 1
908 121 1084 342 56 71 115 196 136 288 22 101 22 320 0 412 -107 437 -533
684 -1062 617z"/>
<path d="M1720 2631 l-85 -6 -3 -897 -2 -898 85 0 85 0 0 804 0 804 168 7
c313 14 632 -7 827 -56 44 -11 118 -39 165 -61 70 -34 100 -56 175 -132 79
-80 140 -162 161 -218 5 -14 1 -18 -15 -18 -12 0 -21 4 -21 9 0 15 -148 168
-198 205 -107 78 -241 129 -423 161 -138 24 -427 38 -594 29 l-150 -9 -3 -764
-2 -763 212 6 c433 14 569 29 728 82 224 75 369 194 460 379 64 129 82 213 87
415 7 247 -23 398 -107 540 -127 216 -349 315 -815 365 -154 17 -601 27 -735
16z"/>
</g>
</svg>
